<svg xmlns="http://www.w3.org/2000/svg" viewBox="0 0 512 512" width="512" height="512">
  <!-- Background -->
  <rect width="512" height="512" fill="#1e40af" rx="80"/>
  
  <!-- EMS Star of Life (simplified) -->
  <g fill="#ffffff">
    <!-- Center circle -->
    <circle cx="256" cy="256" r="60"/>
    
    <!-- Rod of Asclepius (simplified) -->
    <rect x="246" y="160" width="20" height="200" rx="3"/>
    <path d="M 256,200 Q 276,200 276,220 Q 276,240 256,240 Q 236,240 236,220 Q 236,200 256,200 Z"/>
    <path d="M 256,270 Q 276,270 276,290 Q 276,310 256,310 Q 236,310 236,290 Q 236,270 256,270 Z"/>
    
    <!-- Star points (6-pointed star) -->
    <polygon points="256,120 266,150 296,150 272,170 282,200 256,180 230,200 240,170 216,150 246,150"/>
    <polygon points="320,170 310,200 340,210 320,230 330,260 300,240 280,260 290,230 270,210 300,200"/>
    <polygon points="320,320 330,290 360,300 340,320 350,350 320,330 290,350 300,320 280,300 310,290"/>
    <polygon points="256,380 246,350 216,350 240,330 230,300 256,320 282,300 272,330 296,350 266,350"/>
    <polygon points="190,320 200,350 170,340 190,320 180,290 210,310 230,290 220,320 240,340 210,330"/>
    <polygon points="190,170 180,200 150,190 170,170 160,140 190,160 210,140 200,170 220,190 190,200"/>
  </g>
  
  <!-- EMS Text -->
  <text x="256" y="440" font-family="Arial, sans-serif" font-size="60" font-weight="bold" fill="#ffffff" text-anchor="middle">EMS</text>
  <text x="256" y="480" font-family="Arial, sans-serif" font-size="24" fill="#93c5fd" text-anchor="middle">LEADERSHIP</text>
</svg>
